<svg width="39" height="39" viewBox="0 0 39 39" fill="none" xmlns="http://www.w3.org/2000/svg">
<g clip-path="url(#clip0)">
<path d="M18.0982 0.415842C19.0656 -0.137434 20.3249 -0.139793 21.2911 0.415842C26.1514 3.16276 31.0141 5.90495 35.8738 8.65305C36.7881 9.16798 37.3998 10.1855 37.3897 11.2389V27.7635C37.3968 28.8606 36.725 29.9017 35.7606 30.4048C30.9162 33.1364 26.0735 35.8715 21.2297 38.6031C20.2429 39.167 18.9576 39.1239 18.0015 38.5128C16.5493 37.6711 15.0941 36.833 13.6413 35.9918C13.3446 35.8149 13.0102 35.6745 12.8008 35.3867C12.986 35.1366 13.3169 35.1059 13.5865 34.9968C14.1928 34.8039 14.7497 34.4942 15.3065 34.1946C15.4475 34.0978 15.6191 34.1344 15.7548 34.2205C16.9964 34.9331 18.2274 35.6657 19.4737 36.3711C19.7392 36.5245 20.0087 36.321 20.2358 36.1942C24.99 33.5074 29.75 30.8301 34.5036 28.1428C34.5886 28.1004 34.6589 28.0334 34.7052 27.9504C34.7515 27.8675 34.7717 27.7725 34.7631 27.678C34.7661 22.2266 34.7631 16.7746 34.7643 11.3233C34.773 11.2172 34.7483 11.1111 34.6938 11.0197C34.6392 10.9284 34.5575 10.8563 34.46 10.8137C29.6321 8.09446 24.8065 5.37173 19.9792 2.65195C19.8956 2.59444 19.7965 2.56361 19.695 2.5635C19.5935 2.5634 19.4944 2.59403 19.4106 2.65136C14.5833 5.37173 9.75897 8.09741 4.93167 10.816C4.73407 10.9057 4.60194 11.1039 4.62495 11.3233C4.62613 16.7746 4.62495 22.2266 4.62495 27.6785C4.61669 27.7727 4.63747 27.8672 4.6845 27.9493C4.73153 28.0313 4.80256 28.097 4.88802 28.1374C6.17624 28.8677 7.46565 29.5932 8.75505 30.3211C9.48056 30.7121 10.3724 30.9445 11.1728 30.6449C11.8789 30.3912 12.3738 29.6716 12.3602 28.9214C12.3667 23.5024 12.3567 18.0823 12.3655 12.6634C12.3478 12.4228 12.5761 12.224 12.8097 12.247C13.429 12.2429 14.0483 12.2387 14.6677 12.2488C14.9254 12.2429 15.1036 12.5018 15.0717 12.7442C15.0688 18.1979 15.0782 23.6517 15.0676 29.1054C15.0688 30.5588 14.4718 32.1401 13.127 32.8509C11.4713 33.7091 9.42394 33.5275 7.7877 32.7046C6.37148 31.9974 5.01955 31.1634 3.62811 30.406C2.66135 29.9052 1.99305 28.8594 2.00013 27.7635V11.2389C1.98951 10.1636 2.62537 9.12787 3.56794 8.62002C8.41176 5.88667 13.255 3.15096 18.0982 0.415842V0.415842Z" fill="#8CC84B"/>
<path d="M22.3228 11.8638C24.4357 11.7276 26.6971 11.783 28.5988 12.8235C30.0705 13.6216 30.8862 15.295 30.9122 16.9306C30.8709 17.1512 30.6408 17.2727 30.4303 17.2574C29.8168 17.2568 29.204 17.2656 28.5911 17.2533C28.3316 17.2633 28.18 17.0232 28.1476 16.7938C27.9712 16.0116 27.5447 15.2366 26.808 14.8591C25.6773 14.2928 24.3666 14.3217 23.1339 14.3335C22.2338 14.3807 21.2664 14.4592 20.5037 14.9882C19.9186 15.3893 19.7411 16.1986 19.9493 16.8504C20.1469 17.3181 20.6866 17.4691 21.129 17.6083C23.6748 18.2743 26.3727 18.2076 28.8701 19.0841C29.9041 19.4416 30.9157 20.1358 31.2696 21.2182C31.7326 22.6692 31.5292 24.4034 30.4969 25.5683C29.6605 26.5274 28.4407 27.0488 27.225 27.332C25.6071 27.6929 23.9278 27.7018 22.2851 27.5419C20.7403 27.3656 19.1329 26.9598 17.9403 25.9075C16.9204 25.0215 16.4226 23.6425 16.4716 22.3106C16.4833 22.0859 16.7075 21.929 16.9228 21.9473C17.5401 21.9414 18.1576 21.9418 18.7749 21.9484C19.0215 21.9307 19.2043 22.1431 19.2173 22.3761C19.3305 23.1216 19.6107 23.9038 20.2613 24.3462C21.5153 25.1554 23.0896 25.1 24.5259 25.1224C25.7162 25.0693 27.0522 25.0534 28.0237 24.2671C28.5357 23.8188 28.6873 23.068 28.5487 22.4221C28.3988 21.8771 27.829 21.6228 27.3395 21.4565C24.8255 20.6614 22.0975 20.9504 19.6084 20.0509C18.5979 19.694 17.6206 19.0187 17.2325 17.9805C16.6904 16.5118 16.9387 14.6939 18.0795 13.5685C19.1913 12.449 20.7969 12.0178 22.3228 11.8638V11.8638Z" fill="#8CC84B"/>
</g>
<defs>
<clipPath id="clip0">
<rect width="39" height="39" fill="white"/>
</clipPath>
</defs>
</svg>
