<svg width="32" height="32" viewBox="0 0 32 32" fill="none" xmlns="http://www.w3.org/2000/svg">
<rect width="32" height="32" fill="#6219FF"/>
<path d="M15.0901 5.23458C15.6414 4.92247 16.359 4.92114 16.9096 5.23458C19.6792 6.78412 22.4502 8.331 25.2195 9.88121C25.7405 10.1717 26.089 10.7457 26.0833 11.3399V20.6615C26.0873 21.2803 25.7045 21.8676 25.1549 22.1514C22.3944 23.6923 19.6348 25.2352 16.8746 26.7761C16.3123 27.0942 15.5799 27.0699 15.035 26.7252C14.2075 26.2504 13.3783 25.7776 12.5504 25.3031C12.3813 25.2033 12.1908 25.1241 12.0715 24.9617C12.177 24.8206 12.3656 24.8033 12.5192 24.7418C12.8647 24.633 13.182 24.4583 13.4993 24.2893C13.5797 24.2347 13.6774 24.2553 13.7548 24.3039C14.4623 24.7059 15.1638 25.1191 15.874 25.517C16.0253 25.6036 16.1788 25.4888 16.3082 25.4172C19.0174 23.9016 21.7298 22.3913 24.4387 20.8754C24.4871 20.8515 24.5272 20.8137 24.5535 20.7669C24.5799 20.7201 24.5914 20.6665 24.5865 20.6132C24.5882 17.5381 24.5865 14.4626 24.5872 11.3875C24.5922 11.3277 24.5781 11.2678 24.547 11.2162C24.5159 11.1647 24.4694 11.1241 24.4138 11.1C21.6627 9.56611 18.9128 8.03021 16.162 6.49597C16.1144 6.46353 16.0579 6.44614 16.0001 6.44608C15.9422 6.44602 15.8858 6.4633 15.838 6.49564C13.0872 8.03021 10.3381 9.56777 7.58728 11.1013C7.47468 11.1519 7.39939 11.2637 7.4125 11.3875C7.41317 14.4626 7.4125 17.5381 7.4125 20.6135C7.40779 20.6667 7.41963 20.72 7.44643 20.7663C7.47323 20.8125 7.51371 20.8496 7.56241 20.8724C8.29649 21.2843 9.03125 21.6936 9.76601 22.1042C10.1794 22.3248 10.6876 22.4559 11.1437 22.2869C11.5461 22.1438 11.8281 21.7378 11.8204 21.3146C11.8241 18.2578 11.8184 15.2003 11.8234 12.1435C11.8133 12.0077 11.9434 11.8956 12.0765 11.9086C12.4294 11.9063 12.7823 11.9039 13.1353 11.9096C13.2821 11.9063 13.3837 12.0523 13.3655 12.189C13.3639 15.2655 13.3692 18.342 13.3632 21.4184C13.3639 22.2383 13.0237 23.1303 12.2573 23.5313C11.3138 24.0154 10.1472 23.913 9.21477 23.4488C8.40775 23.0498 7.63736 22.5794 6.84446 22.1521C6.29355 21.8696 5.91273 21.2797 5.91676 20.6615V11.3399C5.91071 10.7333 6.27305 10.1491 6.81017 9.86258C9.57039 8.32069 12.3303 6.77746 15.0901 5.23458Z" fill="white"/>
<path d="M17.4973 11.6928C18.7013 11.616 19.9899 11.6472 21.0736 12.2342C21.9123 12.6844 22.3771 13.6284 22.3919 14.551C22.3684 14.6754 22.2372 14.744 22.1173 14.7354C21.7677 14.735 21.4185 14.74 21.0692 14.733C20.9214 14.7387 20.835 14.6032 20.8165 14.4738C20.716 14.0326 20.4729 13.5954 20.0531 13.3825C19.4088 13.063 18.6619 13.0793 17.9595 13.086C17.4466 13.1126 16.8953 13.1569 16.4607 13.4553C16.1273 13.6816 16.0261 14.1381 16.1448 14.5058C16.2574 14.7696 16.5649 14.8548 16.817 14.9333C18.2677 15.309 19.8051 15.2714 21.2282 15.7658C21.8174 15.9675 22.3939 16.3591 22.5956 16.9697C22.8594 17.7882 22.7435 18.7664 22.1552 19.4236C21.6786 19.9646 20.9835 20.2587 20.2908 20.4185C19.3688 20.622 18.4119 20.6271 17.4758 20.5369C16.5955 20.4374 15.6795 20.2085 14.9999 19.6149C14.4188 19.1151 14.1351 18.3372 14.163 17.5859C14.1697 17.4591 14.2974 17.3706 14.4201 17.3809C14.7719 17.3776 15.1238 17.3778 15.4755 17.3816C15.6161 17.3716 15.7202 17.4914 15.7276 17.6228C15.7921 18.0434 15.9518 18.4846 16.3225 18.7342C17.0371 19.1906 17.9342 19.1594 18.7527 19.172C19.431 19.1421 20.1923 19.1331 20.7459 18.6895C21.0377 18.4367 21.124 18.0131 21.0451 17.6488C20.9596 17.3413 20.635 17.1979 20.356 17.1041C18.9234 16.6556 17.3689 16.8186 15.9505 16.3112C15.3747 16.1098 14.8178 15.7289 14.5966 15.1433C14.2877 14.3148 14.4292 13.2893 15.0793 12.6544C15.7128 12.0229 16.6278 11.7797 17.4973 11.6928Z" fill="white"/>
</svg>
