<svg width="24" height="24" viewBox="0 0 24 24" fill="none" xmlns="http://www.w3.org/2000/svg">
<path d="M6.22468 4.81096C5.83416 4.42044 5.201 4.42044 4.81047 4.81096C4.41995 5.20148 4.41995 5.83465 4.81047 6.22517L10.5852 11.9999L4.81053 17.7746C4.42001 18.1651 4.42001 18.7983 4.81053 19.1888C5.20106 19.5793 5.83422 19.5793 6.22474 19.1888L11.9994 13.4141L17.7741 19.1888C18.1646 19.5793 18.7978 19.5793 19.1883 19.1888C19.5788 18.7983 19.5788 18.1651 19.1883 17.7746L13.4136 11.9999L19.1884 6.22517C19.5789 5.83465 19.5789 5.20148 19.1884 4.81096C18.7978 4.42044 18.1647 4.42044 17.7742 4.81096L11.9994 10.5857L6.22468 4.81096Z" fill="white"/>
</svg>
