<svg width="11" height="11" viewBox="0 0 11 11" fill="none" xmlns="http://www.w3.org/2000/svg">
<path fill-rule="evenodd" clip-rule="evenodd" d="M8.87098 4.25807H7.80647V6.74193H8.87098C10.0469 6.74193 11 7.69521 11 8.87098C11 10.0469 10.0469 11 8.87098 11C7.69521 11 6.74193 10.0469 6.74193 8.87098V7.80647H4.25807V8.87098C4.25807 10.0469 3.30481 11 2.12902 11C0.953278 11 0 10.0469 0 8.87098C0 7.69521 0.953278 6.74193 2.12902 6.74193H3.19356V4.25807H2.12902C0.953278 4.25807 0 3.30479 0 2.12904C0 0.953301 0.953278 0 2.12902 0C3.30481 0 4.25807 0.953278 4.25807 2.12904V3.19356H6.74193V2.12904C6.74193 0.953301 7.69521 0 8.87098 0C10.0469 0 11 0.953278 11 2.12904C11 3.30477 10.0469 4.25807 8.87098 4.25807ZM7.80647 8.87096C7.80647 9.45898 8.28291 9.93547 8.87098 9.93547C9.45904 9.93547 9.93549 9.45898 9.93549 8.87096C9.93549 8.34389 9.55138 7.90915 9.04838 7.82424V7.80644H7.80647V8.87096ZM3.19356 2.12904C3.19356 1.54098 2.71709 1.06451 2.12902 1.06451C1.541 1.06451 1.06451 1.54098 1.06451 2.12904C1.06451 2.71707 1.541 3.19356 2.12902 3.19356H3.19356V2.12904ZM1.06453 8.87096C1.06453 9.45898 1.54102 9.93547 2.12905 9.93547C2.71711 9.93547 3.19358 9.45898 3.19358 8.87096V7.80644H2.12905C1.541 7.80644 1.06453 8.28293 1.06453 8.87096ZM6.74193 4.25807H4.25807V6.74193H6.74193V4.25807ZM8.87098 1.06451C8.28291 1.06451 7.80647 1.54098 7.80647 2.12904V3.19356H8.87098C9.45904 3.19356 9.93549 2.71707 9.93549 2.12904C9.93549 1.54098 9.45904 1.06451 8.87098 1.06451Z" fill="black"/>
</svg>
