<svg width="21" height="21" viewBox="0 0 21 21" fill="none" xmlns="http://www.w3.org/2000/svg">
<path d="M10.3828 0.0400391C4.88281 0.0400391 0.382812 4.54004 0.382812 10.04C0.382812 15.54 4.88281 20.04 10.3828 20.04C15.8828 20.04 20.3828 15.54 20.3828 10.04C20.3828 4.54004 15.8828 0.0400391 10.3828 0.0400391ZM4.81138 15.6115C3.31138 14.1115 2.52567 12.1115 2.52567 10.1829L10.3114 17.8972C8.31138 17.8258 6.31138 17.1115 4.81138 15.6115ZM12.0971 17.6829L2.73996 8.32576C3.52567 4.82575 6.66853 2.1829 10.3828 2.1829C13.0257 2.1829 15.3114 3.46861 16.74 5.39718L15.6685 6.32575C14.4542 4.6829 12.5257 3.61147 10.3828 3.61147C7.5971 3.61147 5.23996 5.39718 4.31138 7.89718L12.5257 16.1115C14.5971 15.3972 16.1685 13.6115 16.6685 11.4686H13.24V10.04H18.24C18.24 13.7543 15.5971 16.8972 12.0971 17.6829Z" fill="#663399"/>
</svg>
