<svg width="8" height="14" viewBox="0 0 8 14" fill="none" xmlns="http://www.w3.org/2000/svg">
<path d="M2.80272 10.0382V9.95794C2.81179 9.1058 2.90249 8.42766 3.07483 7.92352C3.24717 7.41938 3.49206 7.01115 3.80952 6.69885C4.12698 6.38655 4.50794 6.09879 4.95238 5.83556C5.35147 5.59911 5.68707 5.28904 5.95918 4.90535C6.23129 4.52167 6.36735 4.06437 6.36735 3.53346C6.36735 2.87763 6.14059 2.35787 5.68707 1.97419C5.2381 1.58604 4.69388 1.39197 4.05442 1.39197C3.68254 1.39197 3.32426 1.46781 2.97959 1.6195C2.63492 1.77119 2.34694 2.00988 2.11565 2.33556C1.88435 2.66125 1.75057 3.08732 1.71429 3.61377H0C0.0362812 2.85532 0.235828 2.20618 0.598639 1.66635C0.965986 1.12651 1.44898 0.71383 2.04762 0.428298C2.65079 0.142766 3.31973 0 4.05442 0C4.85261 0 5.54648 0.15615 6.13605 0.468451C6.73016 0.780752 7.18821 1.20905 7.5102 1.75335C7.83673 2.29764 8 2.91778 8 3.61377C8 4.35437 7.8322 4.98789 7.4966 5.51434C7.161 6.04079 6.69388 6.48247 6.09524 6.83939C5.4966 7.20523 5.07256 7.60899 4.82313 8.05067C4.57823 8.49235 4.44898 9.12811 4.43537 9.95794V10.0382H2.80272ZM3.67347 14C3.33787 14 3.04989 13.8818 2.80952 13.6453C2.56916 13.4089 2.44898 13.1256 2.44898 12.7954C2.44898 12.4653 2.56916 12.182 2.80952 11.9455C3.04989 11.7091 3.33787 11.5908 3.67347 11.5908C4.00907 11.5908 4.29705 11.7091 4.53742 11.9455C4.77778 12.182 4.89796 12.4653 4.89796 12.7954C4.89796 13.1256 4.77778 13.4089 4.53742 13.6453C4.29705 13.8818 4.00907 14 3.67347 14Z" fill="var(--primary-background)"/>
</svg>
