<svg width="476" height="231" viewBox="0 0 476 231" fill="none" xmlns="http://www.w3.org/2000/svg">
<path d="M17.9547 92.5956H0.109375L32.6005 0.304688H53.2397L85.7759 92.5956H67.9306L60.2697 69.8383H25.5705L17.9547 92.5956ZM30.0769 56.4093H55.7633L43.2806 19.2315H42.5596L30.0769 56.4093Z" fill="black"/>
<path d="M120.791 93.8123C115.353 93.8123 110.486 92.4153 106.19 89.6214C101.894 86.8274 98.4989 82.7717 96.0054 77.4541C93.5119 72.1366 92.2651 65.6774 92.2651 58.0766C92.2651 50.3857 93.5269 43.8965 96.0505 38.609C98.6041 33.3215 102.044 29.3108 106.37 26.577C110.696 23.8431 115.518 22.4761 120.836 22.4761C124.921 22.4761 128.256 23.1671 130.84 24.5491C133.454 25.901 135.526 27.5383 137.059 29.461C138.621 31.3537 139.808 33.1413 140.619 34.8237H141.295V0.304688H157.653V92.5956H141.61V81.6901H140.619C139.777 83.3725 138.561 85.16 136.969 87.0527C135.376 88.9154 133.273 90.5076 130.66 91.8295C128.046 93.1514 124.756 93.8123 120.791 93.8123ZM125.342 80.4283C130.539 80.4283 134.55 78.3704 137.374 74.2546C140.198 70.1087 141.61 64.686 141.61 57.9865C141.61 51.257 140.213 45.8944 137.419 41.8987C134.625 37.873 130.599 35.8601 125.342 35.8601C119.904 35.8601 115.803 37.9331 113.04 42.0789C110.276 46.2248 108.894 51.5273 108.894 57.9865C108.894 64.4757 110.291 69.8383 113.085 74.0743C115.879 78.3103 119.964 80.4283 125.342 80.4283Z" fill="black"/>
<path d="M194.954 93.9926C188.345 93.9926 182.832 92.2201 178.416 88.675C174 85.13 171.792 79.9627 171.792 73.173C171.792 67.9757 173.038 63.95 175.532 61.0959C178.056 58.2118 181.315 56.1239 185.311 54.832C189.337 53.5102 193.588 52.6089 198.064 52.1282C204.163 51.4673 208.534 50.8514 211.178 50.2806C213.851 49.7098 215.188 48.2527 215.188 45.9094V45.639C215.188 42.2442 214.182 39.6155 212.169 37.7528C210.156 35.8902 207.257 34.9588 203.472 34.9588C199.476 34.9588 196.306 35.8301 193.963 37.5726C191.65 39.315 190.088 41.3729 189.276 43.7463L174.045 41.5832C175.847 35.2743 179.362 30.5125 184.59 27.298C189.847 24.0834 196.111 22.4761 203.381 22.4761C206.686 22.4761 209.991 22.8667 213.296 23.6478C216.6 24.4289 219.619 25.7207 222.353 27.5233C225.117 29.3259 227.325 31.7593 228.978 34.8237C230.66 37.888 231.501 41.7034 231.501 46.2699V92.5956H215.819V83.0871H215.278C213.806 86.0012 211.403 88.5549 208.068 90.748C204.763 92.9111 200.392 93.9926 194.954 93.9926ZM199.191 82.0056C204.117 82.0056 208.023 80.5936 210.907 77.7696C213.791 74.9456 215.233 71.6108 215.233 67.7654V59.6088C214.542 60.1796 213.265 60.6903 211.403 61.141C209.57 61.5616 207.617 61.9221 205.545 62.2225C203.472 62.5229 201.714 62.7783 200.272 62.9886C196.637 63.4993 193.603 64.5058 191.169 66.0079C188.736 67.48 187.519 69.7782 187.519 72.9027C187.519 75.9069 188.616 78.1751 190.809 79.7073C193.002 81.2395 195.796 82.0056 199.191 82.0056Z" fill="black"/>
<path d="M247.905 92.5956V23.3774H263.497V35.1391H264.308C265.75 31.2035 268.138 28.1091 271.473 25.8559C274.808 23.6027 278.788 22.4761 283.415 22.4761C288.072 22.4761 292.022 23.6027 295.267 25.8559C298.511 28.1091 300.795 31.2035 302.117 35.1391H302.838C304.37 31.2936 306.953 28.2293 310.589 25.9461C314.254 23.6328 318.595 22.4761 323.612 22.4761C329.981 22.4761 335.178 24.489 339.204 28.5147C343.23 32.5404 345.243 38.4137 345.243 46.1347V92.5956H328.884V48.6583C328.884 44.3622 327.743 41.2227 325.46 39.2399C323.176 37.2271 320.382 36.2206 317.078 36.2206C313.142 36.2206 310.063 37.4524 307.84 39.9159C305.647 42.3493 304.55 45.5188 304.55 49.4244V92.5956H288.552V47.9823C288.552 44.4072 287.471 41.5532 285.308 39.4202C283.175 37.2871 280.381 36.2206 276.926 36.2206C273.411 36.2206 270.407 37.5425 267.913 40.1863C265.45 42.8 264.218 46.2398 264.218 50.5059V92.5956H247.905Z" fill="black"/>
<path d="M147.031 168.349H130.177C129.216 162.821 126.722 158.54 122.697 155.505C118.671 152.471 113.849 150.954 108.231 150.954C100.691 150.954 94.5168 153.748 89.71 159.336C84.9032 164.924 82.4998 172.93 82.4998 183.355C82.4998 193.93 84.9032 201.981 89.71 207.509C94.5468 213.007 100.706 215.756 108.186 215.756C113.714 215.756 118.491 214.299 122.517 211.385C126.572 208.44 129.126 204.264 130.177 198.857L147.031 198.947C146.19 204.835 144.072 210.183 140.677 214.99C137.282 219.797 132.806 223.627 127.248 226.481C121.72 229.335 115.291 230.762 107.961 230.762C99.8494 230.762 92.6091 228.884 86.2401 225.129C79.871 221.344 74.8539 215.921 71.1887 208.861C67.5235 201.771 65.6909 193.269 65.6909 183.355C65.6909 173.411 67.5385 164.909 71.2338 157.849C74.929 150.759 79.9612 145.336 86.3302 141.581C92.7293 137.825 99.9395 135.948 107.961 135.948C114.781 135.948 120.954 137.224 126.482 139.778C132.04 142.332 136.622 146.027 140.227 150.864C143.832 155.671 146.1 161.499 147.031 168.349Z" fill="black"/>
<path d="M191.814 230.852C185.054 230.852 179.196 229.365 174.239 226.391C169.282 223.417 165.436 219.256 162.702 213.908C159.998 208.531 158.647 202.282 158.647 195.162C158.647 188.011 159.998 181.763 162.702 176.415C165.436 171.037 169.282 166.861 174.239 163.887C179.196 160.883 185.054 159.381 191.814 159.381C198.573 159.381 204.431 160.883 209.389 163.887C214.376 166.861 218.221 171.037 220.925 176.415C223.629 181.763 224.981 188.011 224.981 195.162C224.981 202.282 223.629 208.531 220.925 213.908C218.221 219.256 214.376 223.417 209.389 226.391C204.431 229.365 198.573 230.852 191.814 230.852ZM191.904 217.784C195.599 217.784 198.663 216.777 201.097 214.764C203.56 212.752 205.393 210.033 206.595 206.608C207.826 203.153 208.442 199.322 208.442 195.117C208.442 190.881 207.826 187.05 206.595 183.625C205.393 180.17 203.56 177.421 201.097 175.379C198.663 173.336 195.599 172.314 191.904 172.314C188.178 172.314 185.069 173.336 182.575 175.379C180.112 177.421 178.264 180.17 177.033 183.625C175.801 187.05 175.185 190.881 175.185 195.117C175.185 199.322 175.801 203.153 177.033 206.608C178.264 210.033 180.112 212.752 182.575 214.764C185.069 216.777 188.178 217.784 191.904 217.784Z" fill="black"/>
<path d="M255.14 137.209V229.5H238.827V137.209H255.14Z" fill="black"/>
<path d="M288.228 137.209V229.5H271.915V137.209H288.228Z" fill="black"/>
<path d="M305.003 229.5V160.282H321.316V229.5H305.003ZM313.205 150.458C310.591 150.458 308.353 149.602 306.49 147.89C304.657 146.147 303.741 144.059 303.741 141.626C303.741 139.162 304.657 137.074 306.49 135.362C308.353 133.619 310.591 132.748 313.205 132.748C315.788 132.748 317.996 133.619 319.829 135.362C321.692 137.074 322.623 139.162 322.623 141.626C322.623 144.059 321.692 146.147 319.829 147.89C317.996 149.602 315.788 150.458 313.205 150.458Z" fill="black"/>
<path d="M368.735 230.852C361.795 230.852 355.801 229.395 350.754 226.481C345.737 223.567 341.876 219.451 339.173 214.133C336.469 208.816 335.117 202.537 335.117 195.297C335.117 188.177 336.469 181.928 339.173 176.55C341.876 171.143 345.677 166.937 350.574 163.932C355.501 160.898 361.269 159.381 367.878 159.381C373.556 159.381 378.799 160.613 383.606 163.076C388.412 165.51 392.258 169.31 395.142 174.477C398.056 179.615 399.513 186.239 399.513 194.35V199.353H351.295C351.385 205.271 353.022 209.882 356.207 213.187C359.421 216.492 363.672 218.144 368.96 218.144C372.475 218.144 375.509 217.393 378.063 215.891C380.646 214.359 382.494 212.136 383.606 209.222L398.837 210.934C397.395 216.942 394.03 221.764 388.743 225.399C383.485 229.035 376.816 230.852 368.735 230.852ZM351.34 188.357H383.876C383.846 183.64 382.374 179.75 379.46 176.685C376.576 173.621 372.79 172.089 368.104 172.089C363.237 172.089 359.286 173.696 356.252 176.911C353.218 180.125 351.58 183.941 351.34 188.357Z" fill="black"/>
<path d="M413.314 229.5V160.282H429.131V171.818H429.852C431.114 167.793 433.277 164.698 436.342 162.535C439.436 160.372 442.966 159.291 446.932 159.291C447.833 159.291 448.839 159.336 449.951 159.426C451.093 159.486 452.039 159.591 452.79 159.741V174.748C452.099 174.507 451.002 174.297 449.5 174.117C448.028 173.906 446.601 173.801 445.219 173.801C440.743 173.801 437.018 175.213 434.043 178.037C431.099 180.831 429.627 184.421 429.627 188.808V229.5H413.314Z" fill="black"/>
<path d="M465.746 230.492C463.012 230.492 460.669 229.53 458.716 227.608C456.763 225.655 455.802 223.312 455.832 220.578C455.802 217.874 456.763 215.561 458.716 213.638C460.669 211.715 463.012 210.754 465.746 210.754C468.42 210.754 470.733 211.715 472.686 213.638C474.639 215.561 475.63 217.874 475.66 220.578C475.63 223.312 474.639 225.655 472.686 227.608C470.733 229.53 468.42 230.492 465.746 230.492Z" fill="black"/>
</svg>
