<svg width="13" height="13" viewBox="0 0 13 13" fill="none" xmlns="http://www.w3.org/2000/svg">
<path fill-rule="evenodd" clip-rule="evenodd" d="M9.06155 5.53078C9.06155 7.48077 7.48077 9.06155 5.53078 9.06155C3.58078 9.06155 2 7.48077 2 5.53078C2 3.58078 3.58078 2 5.53078 2C7.48077 2 9.06155 3.58078 9.06155 5.53078ZM8.36152 9.06862C7.586 9.68994 6.60179 10.0616 5.53078 10.0616C3.0285 10.0616 1 8.03305 1 5.53078C1 3.0285 3.0285 1 5.53078 1C8.03305 1 10.0616 3.0285 10.0616 5.53078C10.0616 6.60178 9.68994 7.586 9.06862 8.36151L11.8092 11.1021L11.1021 11.8092L8.36152 9.06862Z" fill="var(--primary-accent)"/>
<path d="M8.36152 9.06862L8.50294 8.9272L8.37627 8.80053L8.23647 8.91253L8.36152 9.06862ZM9.06862 8.36151L8.91254 8.23646L8.80053 8.37626L8.9272 8.50293L9.06862 8.36151ZM11.8092 11.1021L11.9506 11.2435L12.092 11.1021L11.9506 10.9607L11.8092 11.1021ZM11.1021 11.8092L10.9607 11.9506L11.1021 12.092L11.2435 11.9506L11.1021 11.8092ZM5.53078 9.26155C7.59123 9.26155 9.26155 7.59123 9.26155 5.53078H8.86155C8.86155 7.37031 7.37031 8.86155 5.53078 8.86155V9.26155ZM1.8 5.53078C1.8 7.59123 3.47033 9.26155 5.53078 9.26155V8.86155C3.69124 8.86155 2.2 7.37031 2.2 5.53078H1.8ZM5.53078 1.8C3.47033 1.8 1.8 3.47033 1.8 5.53078H2.2C2.2 3.69124 3.69124 2.2 5.53078 2.2V1.8ZM9.26155 5.53078C9.26155 3.47033 7.59123 1.8 5.53078 1.8V2.2C7.37031 2.2 8.86155 3.69124 8.86155 5.53078H9.26155ZM5.53078 10.2616C6.64887 10.2616 7.67686 9.87342 8.48657 9.2247L8.23647 8.91253C7.49515 9.50646 6.5547 9.86155 5.53078 9.86155V10.2616ZM0.8 5.53078C0.8 8.14351 2.91804 10.2616 5.53078 10.2616V9.86155C3.13895 9.86155 1.2 7.9226 1.2 5.53078H0.8ZM5.53078 0.8C2.91804 0.8 0.8 2.91804 0.8 5.53078H1.2C1.2 3.13895 3.13895 1.2 5.53078 1.2V0.8ZM10.2616 5.53078C10.2616 2.91804 8.14351 0.8 5.53078 0.8V1.2C7.9226 1.2 9.86155 3.13895 9.86155 5.53078H10.2616ZM9.22471 8.48656C9.87342 7.67685 10.2616 6.64887 10.2616 5.53078H9.86155C9.86155 6.5547 9.50646 7.49514 8.91254 8.23646L9.22471 8.48656ZM8.9272 8.50293L11.6678 11.2435L11.9506 10.9607L9.21004 8.22009L8.9272 8.50293ZM11.6678 10.9607L10.9607 11.6678L11.2435 11.9506L11.9506 11.2435L11.6678 10.9607ZM11.2435 11.6678L8.50294 8.9272L8.22009 9.21004L10.9607 11.9506L11.2435 11.6678Z" fill="var(--primary-accent)"/>
</svg>
