<svg xmlns="http://www.w3.org/2000/svg" fill="none" viewBox="0 0 24 24">
  <defs/>
  <path fill="#6219FF" d="M16.732 11.092C14.154 9.561 9.9 9.42 7.438 10.167a.748.748 0 01-.434-1.432c2.826-.858 7.523-.692 10.492 1.07a.748.748 0 01-.764 1.287zm-.084 2.268a.624.624 0 01-.858.206c-2.15-1.322-5.428-1.704-7.972-.932a.625.625 0 01-.362-1.194c2.905-.881 6.517-.454 8.987 1.063.293.18.385.565.205.857zm-.979 2.179a.498.498 0 01-.686.166c-1.878-1.148-4.243-1.408-7.028-.772a.498.498 0 11-.221-.972c3.047-.696 5.66-.396 7.77.892.235.144.309.45.165.686zM12 4a8 8 0 100 16 8 8 0 000-16z"/>
</svg>
