<svg xmlns="http://www.w3.org/2000/svg" fill="none" viewBox="0 0 24 24">
  <defs/>
  <path fill="#6219FF" d="M22 5.848c-.704.347-1.525.52-2.346.636.88-.52 1.466-1.329 1.818-2.253-.821.462-1.642.809-2.58.982C18.07 4.463 17.073 4 15.841 4c-2.288 0-4.106 1.848-4.106 4.043 0 .347.059.636.117.925C8.452 8.736 5.46 7.177 3.408 4.75c-.352.578-.528 1.27-.528 2.022 0 1.386.704 2.599 1.818 3.35a3.68 3.68 0 01-1.877-.52v.058a3.992 3.992 0 003.285 3.927c-.352.116-.704.116-1.115.116-.293 0-.528-.058-.762-.116.528 1.56 2.053 2.773 3.812 2.83a7.987 7.987 0 01-5.044 1.791c-.352 0-.645 0-.997-.057C3.818 19.249 5.93 20 8.276 20c7.507 0 11.613-6.123 11.613-11.437v-.52A8.392 8.392 0 0022 5.848z"/>
</svg>
