<svg width="32" height="32" viewBox="0 0 32 32" fill="none" xmlns="http://www.w3.org/2000/svg">
<rect width="32" height="32" fill="#6219FF"/>
<path d="M16.6175 11.9414L10.1052 14.6875L10.3212 17.4063L16.6175 14.6806L23.3152 11.7812L23.5929 9L16.6175 11.9414Z" fill="white"/>
<path d="M10.1052 14.6873L10.3212 17.4061L16.6175 14.6803V11.9412L10.1052 14.6873Z" fill="white"/>
<path d="M23.593 9.00049L16.6176 11.9418V14.681L23.3153 11.7817L23.593 9.00049Z" fill="white"/>
<path d="M10.1157 14.6875L10.3318 17.4063L19.9927 17.4375L19.7765 21.0625L16.5976 21.9687L13.5416 21.1875L13.3564 18.9374H10.5169L10.8874 23.2812L16.6284 24.9999L22.3384 23.3124L23.0792 14.6875H10.1157Z" fill="white"/>
<path opacity="0.05" d="M16.6175 14.6875H10.1052L10.3212 17.4063L16.6175 17.4267V14.6875ZM16.6175 21.96L16.5866 21.9688L13.5311 21.1875L13.3459 18.9375H10.5065L10.8768 23.2813L16.6175 25V21.96Z" fill="white"/>
<path d="M9.51855 9.00049H23.5927L23.315 11.7817H9.85804L9.51855 9.00049Z" fill="white"/>
<path opacity="0.05" d="M16.6173 9.00049H9.51855L9.85804 11.7817H16.6173V9.00049Z" fill="white"/>
</svg>
