<svg width="39" height="39" viewBox="0 0 39 39" fill="none" xmlns="http://www.w3.org/2000/svg">
<path d="M0 0.81063C0 0.362932 0.362931 0 0.810629 0H38.1894C38.6371 0 39 0.362931 39 0.810629V38.1894C39 38.6371 38.6371 39 38.1894 39H0.81063C0.362932 39 0 38.6371 0 38.1894V0.81063Z" fill="#F7DF1E"/>
<path d="M26.1998 30.4692C26.9855 31.7519 28.0077 32.6944 29.8151 32.6944C31.3335 32.6944 32.3038 31.9356 32.3038 30.8869C32.3038 29.6303 31.3071 29.1852 29.6357 28.4542L28.7197 28.0612C26.075 26.9345 24.3179 25.5227 24.3179 22.5392C24.3179 19.7906 26.4122 17.698 29.6851 17.698C32.0152 17.698 33.6904 18.5092 34.8977 20.6325L32.0438 22.4647C31.4154 21.338 30.7377 20.8943 29.6851 20.8943C28.6118 20.8943 27.9314 21.5755 27.9314 22.4647C27.9314 23.5645 28.6122 24.0095 30.1848 24.6903L31.1008 25.0829C34.2148 26.418 35.9728 27.7795 35.9728 30.8397C35.9728 34.1395 33.381 35.947 29.9001 35.947C26.4967 35.947 24.2975 34.325 23.2215 32.1995L26.1998 30.4692ZM13.254 30.7868C13.8295 31.8082 14.3534 32.6718 15.6122 32.6718C16.8164 32.6718 17.5761 32.2004 17.5761 30.3687V17.9073H21.2408V30.4185C21.2408 34.2132 19.016 35.9405 15.7682 35.9405C12.8341 35.9405 11.135 34.4216 10.2705 32.593L13.254 30.7868Z" fill="black"/>
</svg>
