<svg width="32" height="32" viewBox="0 0 32 32" fill="none" xmlns="http://www.w3.org/2000/svg">
<rect width="32" height="32" fill="#6219FF"/>
<path d="M18.1557 19.0978C18.706 20.0115 19.4218 20.683 20.6876 20.683C21.751 20.683 22.4305 20.1424 22.4305 19.3953C22.4305 18.5002 21.7325 18.1831 20.562 17.6624L19.9205 17.3824C18.0683 16.5798 16.8378 15.5741 16.8378 13.4487C16.8378 11.4907 18.3045 10 20.5966 10C22.2284 10 23.4016 10.5779 24.2471 12.0904L22.2484 13.3956C21.8083 12.593 21.3337 12.2769 20.5966 12.2769C19.8449 12.2769 19.3684 12.7622 19.3684 13.3956C19.3684 14.1791 19.8452 14.4961 20.9465 14.9811L21.588 15.2608C23.7688 16.2118 25 17.1817 25 19.3617C25 21.7124 23.1849 23 20.7471 23C18.3636 23 16.8235 21.8445 16.0699 20.3304L18.1557 19.0978ZM9.08942 19.324C9.49246 20.0517 9.85936 20.6669 10.7409 20.6669C11.5843 20.6669 12.1163 20.331 12.1163 19.0262V10.1491H14.6828V19.0617C14.6828 21.7649 13.1247 22.9954 10.8502 22.9954C8.79536 22.9954 7.60543 21.9134 7 20.6107L9.08942 19.324Z" fill="white"/>
</svg>
