<svg width="39" height="39" viewBox="0 0 39 39" fill="none" xmlns="http://www.w3.org/2000/svg">
<g clip-path="url(#clip0)">
<circle cx="19" cy="19" r="19" fill="#223229"/>
<path d="M5.56497 5.56497C2.45671 8.67324 0.522349 12.7631 0.0914902 17.1377C-0.339369 21.5123 0.759929 25.9009 3.20208 29.5558C5.64422 33.2108 9.27812 35.9058 13.4846 37.1819C17.6911 38.4579 22.2098 38.2359 26.271 36.5537C30.3321 34.8715 33.6844 31.8332 35.7565 27.9565C37.8286 24.0798 38.4925 19.6046 37.6349 15.2933C36.7774 10.982 34.4514 7.10144 31.0535 4.31281C27.6555 1.52417 23.3958 2.42793e-06 19 0L19 2.81936C22.7435 2.81936 26.3712 4.11736 29.2649 6.4922C32.1586 8.86704 34.1394 12.1718 34.8697 15.8433C35.6001 19.5149 35.0347 23.3261 33.2701 26.6275C31.5054 29.929 28.6506 32.5164 25.1921 33.949C21.7335 35.3815 17.8853 35.5706 14.303 34.4839C10.7207 33.3972 7.62605 31.1021 5.54629 27.9895C3.46652 24.8769 2.53035 21.1395 2.89727 17.414C3.2642 13.6886 4.91152 10.2056 7.55856 7.55856L5.56497 5.56497Z" fill="#24CD6F" fill-opacity="0.94"/>
<path d="M16.1854 19.4666C15.9034 19.8021 15.5656 20.0718 15.1718 20.276C14.783 20.4802 14.3552 20.5823 13.8885 20.5823C13.276 20.5823 12.7413 20.4316 12.2843 20.1302C11.8323 19.8288 11.4823 19.4059 11.2343 18.8614C10.9864 18.3121 10.8625 17.7069 10.8625 17.0458C10.8625 16.3361 10.9961 15.6968 11.2635 15.1281C11.5357 14.5593 11.9198 14.1243 12.4156 13.8229C12.9114 13.5215 13.4899 13.3708 14.151 13.3708C15.201 13.3708 16.0274 13.7646 16.6302 14.5521C17.2378 15.3347 17.5416 16.4041 17.5416 17.7604V18.1541C17.5416 20.2201 17.1333 21.7295 16.3166 22.6823C15.5 23.6302 14.2677 24.1163 12.6198 24.1406H12.3573V23.0031H12.6416C13.7548 22.9836 14.6104 22.6944 15.2083 22.1354C15.8062 21.5715 16.1319 20.6819 16.1854 19.4666ZM14.1073 19.4666C14.5593 19.4666 14.975 19.3281 15.3541 19.051C15.7382 18.7739 16.0177 18.4312 16.1927 18.0229V17.4833C16.1927 16.5986 16.0007 15.8791 15.6166 15.325C15.2326 14.7708 14.7465 14.4937 14.1583 14.4937C13.5652 14.4937 13.0889 14.7222 12.7291 15.1791C12.3694 15.6312 12.1896 16.2291 12.1896 16.9729C12.1896 17.6972 12.3621 18.2951 12.7073 18.7666C13.0573 19.2333 13.5239 19.4666 14.1073 19.4666ZM23.8343 24.1333H22.4781V15.1427L19.7583 16.1416V14.9166L23.6229 13.4656H23.8343V24.1333Z" fill="#24BF69"/>
</g>
<defs>
<clipPath id="clip0">
<rect width="39" height="39" fill="white"/>
</clipPath>
</defs>
</svg>
