<svg width="32" height="32" viewBox="0 0 32 32" fill="none" xmlns="http://www.w3.org/2000/svg">
<rect width="32" height="32" fill="#6219FF"/>
<path d="M16 27C22.0751 27 27 22.0751 27 16C27 9.92487 22.0751 5 16 5C9.92487 5 5 9.92487 5 16C5 22.0751 9.92487 27 16 27Z" fill="#6219FF"/>
<path d="M8.22184 8.22183C6.42232 10.0214 5.30243 12.3892 5.05299 14.9218C4.80354 17.4545 5.43998 19.9953 6.85385 22.1113C8.26773 24.2273 10.3716 25.7876 12.8069 26.5264C15.2422 27.2651 17.8583 27.1366 20.2096 26.1627C22.5607 25.1888 24.5015 23.4298 25.7012 21.1853C26.9008 18.9409 27.2852 16.35 26.7887 13.854C26.2922 11.358 24.9456 9.11136 22.9784 7.49689C21.0111 5.88241 18.545 5 16 5V6.63226C18.1673 6.63226 20.2676 7.38374 21.9429 8.75864C23.6182 10.1336 24.7649 12.0468 25.1877 14.1724C25.6106 16.2981 25.2833 18.5046 24.2617 20.4159C23.24 22.3273 21.5872 23.8253 19.5849 24.6547C17.5826 25.484 15.3547 25.5935 13.2807 24.9644C11.2067 24.3352 9.4151 23.0065 8.21103 21.2045C7.00695 19.4024 6.46496 17.2387 6.67738 15.0818C6.88982 12.925 7.84353 10.9085 9.37603 9.37601L8.22184 8.22183Z" fill="white" fill-opacity="0.94"/>
<path d="M14.3705 16.2706C14.2072 16.4648 14.0117 16.621 13.7837 16.7392C13.5586 16.8574 13.3109 16.9165 13.0407 16.9165C12.6861 16.9165 12.3765 16.8293 12.112 16.6548C11.8503 16.4803 11.6476 16.2355 11.5041 15.9202C11.3605 15.6022 11.2888 15.2518 11.2888 14.8691C11.2888 14.4582 11.3662 14.0881 11.521 13.7588C11.6786 13.4295 11.9009 13.1777 12.188 13.0032C12.475 12.8287 12.8099 12.7415 13.1927 12.7415C13.8006 12.7415 14.279 12.9694 14.628 13.4254C14.9798 13.8785 15.1557 14.4976 15.1557 15.2828V15.5107C15.1557 16.7068 14.9193 17.5807 14.4465 18.1323C13.9737 18.6811 13.2603 18.9625 12.3062 18.9766H12.1542V18.3181H12.3188C12.9633 18.3068 13.4587 18.1393 13.8048 17.8157C14.151 17.4892 14.3395 16.9742 14.3705 16.2706ZM13.1674 16.2706C13.4291 16.2706 13.6697 16.1904 13.8892 16.03C14.1116 15.8696 14.2734 15.6712 14.3747 15.4348V15.1224C14.3747 14.6102 14.2636 14.1936 14.0412 13.8728C13.8189 13.552 13.5375 13.3916 13.1969 13.3916C12.8535 13.3916 12.5778 13.5238 12.3695 13.7884C12.1612 14.0501 12.0571 14.3963 12.0571 14.8269C12.0571 15.2462 12.157 15.5924 12.3569 15.8653C12.5595 16.1355 12.8296 16.2706 13.1674 16.2706ZM18.7988 18.9724H18.0136V13.7673L16.439 14.3456V13.6364L18.6764 12.7963H18.7988V18.9724Z" fill="white"/>
</svg>
