<svg width="39" height="39" viewBox="0 0 39 39" fill="none" xmlns="http://www.w3.org/2000/svg">
<path d="M1.36063 14.042C1.36063 14.042 0.437416 13.408 1.54527 12.5615L4.12643 10.3628C4.12643 10.3628 4.865 9.62258 5.64588 10.2675L29.4648 27.4467V35.6846C29.4648 35.6846 29.4533 36.9781 27.7107 36.8352L1.36063 14.042Z" fill="#2489CA"/>
<path d="M7.49983 19.3516L1.36046 24.6688C1.36046 24.6688 0.729599 25.1158 1.36046 25.9147L4.21088 28.3846C4.21088 28.3846 4.88791 29.0772 5.88806 28.2893L12.3967 23.5877L7.49983 19.3516Z" fill="#1070B3"/>
<path d="M18.2781 19.396L29.5375 11.2058L29.4644 3.01195C29.4644 3.01195 28.9836 1.22367 27.3795 2.15446L12.3965 15.1451L18.2781 19.396Z" fill="#0877B9"/>
<path d="M27.7112 36.8461C28.3651 37.4837 29.1576 37.2748 29.1576 37.2748L37.932 33.1559C39.0553 32.4267 38.8975 31.5215 38.8975 31.5215V6.92532C38.8975 5.84429 37.7358 5.47051 37.7358 5.47051L30.1308 1.97823C28.469 0.999803 27.3804 2.15412 27.3804 2.15412C27.3804 2.15412 28.7806 1.19402 29.4653 3.01162V35.5342C29.4653 35.7577 29.4153 35.9776 29.3153 36.1755C29.1153 36.5602 28.6806 36.9193 27.6381 36.7691L27.7112 36.8461Z" fill="#3C99D4"/>
</svg>
