<svg width="32" height="32" viewBox="0 0 32 32" fill="none" xmlns="http://www.w3.org/2000/svg">
<rect width="32" height="32" fill="#6219FF"/>
<path d="M5.1998 12.8333C5.1998 12.8333 4.68832 12.482 5.30209 12.013L6.73209 10.7949C6.73209 10.7949 7.14127 10.3848 7.57389 10.7421L20.7699 20.2597V24.8236C20.7699 24.8236 20.7636 25.5402 19.7981 25.4611L5.1998 12.8333Z" fill="white"/>
<path d="M8.60096 15.7749L5.19965 18.7207C5.19965 18.7207 4.85014 18.9684 5.19965 19.411L6.77883 20.7793C6.77883 20.7793 7.15391 21.163 7.70801 20.7265L11.3139 18.1218L8.60096 15.7749Z" fill="white"/>
<path d="M14.5723 15.7995L20.8102 11.262L20.7697 6.72243C20.7697 6.72243 20.5034 5.7317 19.6147 6.24737L11.3138 13.4444L14.5723 15.7995Z" fill="white"/>
<path d="M19.7985 25.4672C20.1608 25.8205 20.5998 25.7048 20.5998 25.7048L25.461 23.4228C26.0833 23.0188 25.9959 22.5173 25.9959 22.5173V8.89066C25.9959 8.29176 25.3523 8.08468 25.3523 8.08468L21.139 6.1499C20.2183 5.60783 19.6152 6.24734 19.6152 6.24734C19.6152 6.24734 20.391 5.71543 20.7703 6.72241V24.7404C20.7703 24.8643 20.7426 24.9861 20.6872 25.0957C20.5764 25.3089 20.3356 25.5078 19.758 25.4246L19.7985 25.4672Z" fill="white"/>
</svg>
