<svg width="32" height="32" viewBox="0 0 32 32" fill="none" xmlns="http://www.w3.org/2000/svg">
<rect width="32" height="32" fill="#6219FF"/>
<path d="M27.3167 16.0871C27.3167 14.5866 25.4391 13.1646 22.5605 12.2832C23.2249 9.34688 22.9294 7.01107 21.6286 6.2632C21.3287 6.08785 20.978 6.00472 20.595 6.00472V7.03394C20.8074 7.03394 20.978 7.07569 21.1211 7.15411C21.7484 7.51425 22.0207 8.88545 21.8083 10.6488C21.7519 11.1047 21.6733 11.5577 21.5731 12.0062C20.6087 11.7736 19.63 11.6055 18.6433 11.503C18.0207 10.6488 17.3748 9.87292 16.7243 9.1944C18.2284 7.79596 19.6402 7.02958 20.5998 7.02958V6C19.3309 6 17.67 6.9047 15.991 8.47449C14.3115 6.91414 12.651 6.01851 11.3821 6.01851V7.0481C12.3369 7.0481 13.7535 7.80976 15.2572 9.19912C14.5702 9.92247 13.9336 10.6921 13.352 11.5026C12.3093 11.6137 11.3218 11.7843 10.4179 12.0109C10.3161 11.5688 10.2361 11.1219 10.1779 10.672C9.96118 8.90832 10.2287 7.53712 10.8514 7.17226C10.9901 7.08949 11.1697 7.05245 11.3821 7.05245V6.02323C10.9944 6.02323 10.6441 6.10637 10.3395 6.28172C9.04305 7.02958 8.75225 9.36067 9.42098 12.2875C6.55222 13.1741 4.68329 14.5914 4.68329 16.0871C4.68329 17.5872 6.56094 19.0092 9.43985 19.891C8.77549 22.8269 9.07064 25.1628 10.3718 25.9107C10.6716 26.0863 11.022 26.1691 11.4097 26.1691C12.6785 26.1691 14.3395 25.2644 16.0185 23.695C17.6979 25.2553 19.3585 26.151 20.6273 26.151C21.0151 26.151 21.3654 26.0675 21.67 25.8921C22.9661 25.1443 23.2572 22.8132 22.5881 19.8863C25.4485 19.0045 27.3167 17.5828 27.3167 16.0871ZM21.3106 13.0078C21.1312 13.6249 20.9233 14.2334 20.6876 14.8314C20.4969 14.4563 20.2955 14.0868 20.0835 13.7234C19.8712 13.3576 19.6497 12.9974 19.4191 12.6429C20.074 12.7398 20.7061 12.86 21.3106 13.0078ZM19.1976 17.9245C18.8521 18.5277 18.4811 19.116 18.0856 19.6877C17.3923 19.7487 16.6965 19.7795 16.0004 19.7799C15.3075 19.7787 14.615 19.7495 13.9245 19.6924C13.5285 19.1232 13.156 18.538 12.8078 17.9382C12.4617 17.3399 12.1415 16.7269 11.8483 16.1009C12.1399 15.4734 12.4585 14.8589 12.8031 14.2588C13.1487 13.6555 13.5196 13.067 13.9151 12.4952C14.6085 12.4342 15.3042 12.4034 16.0004 12.403C16.6974 12.403 17.3937 12.4356 18.0766 12.4908C18.4724 13.0601 18.8449 13.6453 19.1929 14.245C19.5391 14.8433 19.8592 15.4562 20.1525 16.082C19.859 16.7087 19.5405 17.3234 19.1976 17.9245ZM20.6876 17.3243C20.9298 17.9259 21.1423 18.5389 21.3244 19.1613C20.7199 19.3091 20.0835 19.4336 19.4235 19.5309C19.654 19.1717 19.8755 18.8069 20.0878 18.4367C20.2966 18.0708 20.4966 17.6999 20.6876 17.3243ZM16.0095 22.2497C15.5569 21.7795 15.1287 21.2864 14.7268 20.7722C15.1421 20.7907 15.5665 20.8048 15.9957 20.8048C16.4291 20.8048 16.8582 20.7954 17.2779 20.7722C16.882 21.2872 16.4586 21.7804 16.0095 22.2497ZM12.5769 19.5305C11.9411 19.4382 11.31 19.3164 10.6854 19.1657C10.8647 18.5485 11.0725 17.94 11.308 17.3422C11.4989 17.7172 11.7004 18.0867 11.9125 18.4501C12.1265 18.8148 12.348 19.1751 12.5769 19.5305ZM15.9862 9.92375C16.4388 10.3939 16.8669 10.8869 17.2688 11.4009C16.8462 11.3807 16.4231 11.3698 16 11.3683C15.5722 11.3675 15.1445 11.3784 14.7174 11.4009C15.1134 10.8859 15.5369 10.3926 15.9862 9.92338V9.92375ZM12.5721 12.6429C12.1145 13.3554 11.6926 14.0903 11.308 14.8448C11.066 14.2431 10.8536 13.6299 10.6716 13.0074C11.2996 12.8585 11.9337 12.7367 12.5721 12.6426V12.6429ZM8.3972 18.4225C6.76388 17.7255 5.70743 16.8114 5.70743 16.0868C5.70743 15.3617 6.76388 14.4432 8.3972 13.7506C8.794 13.58 9.22747 13.4274 9.6751 13.2844C9.95742 14.2439 10.3043 15.1832 10.7134 16.0958C10.3087 17.004 9.96642 17.9387 9.6889 18.8934C9.25088 18.7577 8.8198 18.6005 8.3972 18.4225ZM10.8793 25.0194C10.2516 24.6592 9.97933 23.2884 10.1917 21.5248C10.2425 21.0909 10.3257 20.6338 10.427 20.1677C11.331 20.3891 12.3184 20.5598 13.3567 20.6708C13.9793 21.5248 14.6252 22.3002 15.2757 22.979C13.7717 24.3778 12.3601 25.1443 11.4003 25.1443C11.193 25.1395 11.0176 25.0978 10.8793 25.0194ZM21.8221 21.5015C22.0392 23.2652 21.7712 24.6363 21.1486 25.0012C21.0104 25.084 20.8303 25.121 20.6183 25.121C19.6634 25.121 18.2469 24.3593 16.7428 22.9696C17.4298 22.2463 18.0664 21.4766 18.648 20.6661C19.6907 20.5554 20.6782 20.3844 21.5825 20.1582C21.6859 20.6015 21.7659 21.0499 21.8221 21.5015ZM23.5985 18.4225C23.2017 18.5931 22.7678 18.7457 22.3205 18.8887C22.0382 17.9292 21.6913 16.9899 21.2822 16.0773C21.687 15.1691 22.0293 14.2344 22.3067 13.2797C22.7635 13.4227 23.1969 13.58 23.6028 13.7506C25.2365 14.4476 26.2929 15.3617 26.2929 16.0868C26.2879 16.8114 25.2314 17.7302 23.5985 18.4225Z" fill="white"/>
<path d="M15.7442 17.7656C16.5564 17.7656 17.2149 17.1072 17.2149 16.2949C17.2149 15.4827 16.5564 14.8242 15.7442 14.8242C14.932 14.8242 14.2735 15.4827 14.2735 16.2949C14.2735 17.1072 14.932 17.7656 15.7442 17.7656Z" fill="white"/>
</svg>
