<svg width="39" height="39" viewBox="0 0 39 39" fill="none" xmlns="http://www.w3.org/2000/svg">
<path d="M39 20.0492C39 17.4637 35.7646 15.0134 30.8045 13.4946C31.9493 8.43502 31.4401 4.41016 29.1987 3.1215C28.682 2.81935 28.0777 2.6761 27.4177 2.6761V4.44957C27.7837 4.44957 28.0777 4.52151 28.3242 4.65663C29.4051 5.27719 29.8743 7.63993 29.5084 10.6783C29.4111 11.464 29.2758 12.2446 29.103 13.0173C27.4413 12.6165 25.7549 12.3269 24.0547 12.1502C22.9819 10.6783 21.869 9.34146 20.748 8.17228C23.3397 5.76262 25.7725 4.44206 27.4259 4.44206V2.66797C25.2395 2.66797 22.3776 4.22687 19.4844 6.9318C16.5905 4.24313 13.7292 2.69987 11.5429 2.69987V4.47396C13.1881 4.47396 15.629 5.78639 18.2201 8.18042C17.0363 9.42683 15.9394 10.753 14.9372 12.1496C13.1405 12.341 11.439 12.635 9.88137 13.0254C9.70606 12.2636 9.56806 11.4936 9.46787 10.7183C9.09441 7.67934 9.55545 5.3166 10.6283 4.68791C10.8673 4.54528 11.1769 4.48147 11.5429 4.48147V2.708C10.8748 2.708 10.2711 2.85126 9.74625 3.1534C7.51237 4.44206 7.01129 8.45879 8.16358 13.5021C3.22039 15.0297 0 17.4719 0 20.0492C0 22.634 3.2354 25.0843 8.1961 26.6038C7.05133 31.6627 7.55991 35.6876 9.80192 36.9763C10.3186 37.279 10.9223 37.4217 11.5904 37.4217C13.7767 37.4217 16.6387 35.8628 19.5319 33.1585C22.4257 35.8471 25.2871 37.3904 27.4734 37.3904C28.1415 37.3904 28.7452 37.2465 29.27 36.9444C31.5033 35.6557 32.005 31.639 30.8521 26.5957C35.7809 25.0762 39 22.6265 39 20.0492V20.0492ZM28.6507 14.7432C28.3416 15.8066 27.9834 16.8551 27.5772 17.8854C27.2487 17.2391 26.9016 16.6024 26.5363 15.9762C26.1705 15.346 25.7888 14.7253 25.3915 14.1145C26.52 14.2815 27.6092 14.4886 28.6507 14.7432ZM25.0099 23.2152C24.4145 24.2546 23.7752 25.2683 23.0938 26.2535C21.899 26.3586 20.7001 26.4116 19.5006 26.4124C18.3068 26.4103 17.1135 26.36 15.9237 26.2616C15.2413 25.2807 14.5994 24.2723 13.9994 23.2389C13.4031 22.2079 12.8514 21.1516 12.3461 20.073C12.8486 18.9918 13.3976 17.9328 13.9913 16.8989C14.5868 15.8592 15.226 14.8453 15.9074 13.8599C17.1023 13.7548 18.3011 13.7018 19.5006 13.701C20.7017 13.701 21.9015 13.7573 23.0782 13.8524C23.7603 14.8333 24.4021 15.8417 25.0018 16.8751C25.5982 17.906 26.1498 18.9621 26.6552 20.0404C26.1495 21.1203 25.6006 22.1794 25.0099 23.2152V23.2152ZM27.5772 22.1811C27.9946 23.2176 28.3608 24.274 28.6745 25.3464C27.6329 25.601 26.5363 25.8156 25.399 25.9833C25.7963 25.3644 26.178 24.7358 26.5438 24.0978C26.9036 23.4673 27.2482 22.8282 27.5772 22.1811V22.1811ZM19.5163 30.6681C18.7364 29.8579 17.9987 29.0081 17.3062 28.1221C18.0218 28.154 18.7531 28.1784 19.4925 28.1784C20.2394 28.1784 20.9788 28.1621 21.702 28.1221C21.0198 29.0095 20.2902 29.8594 19.5163 30.6681ZM13.6016 25.9826C12.5061 25.8235 11.4185 25.6137 10.3424 25.354C10.6513 24.2905 11.0093 23.242 11.4152 22.2118C11.744 22.8581 12.0913 23.4947 12.4568 24.121C12.8255 24.7494 13.2072 25.3701 13.6016 25.9826V25.9826ZM19.4762 9.42904C20.2561 10.2391 20.9938 11.0886 21.6863 11.9744C20.9581 11.9395 20.2291 11.9207 19.5 11.9181C18.7629 11.9167 18.0259 11.9355 17.2899 11.9744C17.9722 11.087 18.7021 10.237 19.4762 9.42841V9.42904ZM13.5934 14.1145C12.8048 15.3422 12.0778 16.6084 11.4152 17.9085C10.9981 16.8718 10.6321 15.8152 10.3186 14.7426C11.4007 14.4859 12.4933 14.2761 13.5934 14.1139V14.1145ZM6.39949 24.0734C3.58509 22.8724 1.76471 21.2972 1.76471 20.0486C1.76471 18.7993 3.58509 17.2166 6.39949 16.0231C7.08323 15.7291 7.83015 15.4663 8.60147 15.2199C9.08793 16.8731 9.68566 18.4916 10.3906 20.0642C9.69325 21.6291 9.10344 23.2397 8.62524 24.8848C7.87049 24.6509 7.12768 24.3801 6.39949 24.0734V24.0734ZM10.6765 35.4405C9.59486 34.8199 9.12569 32.4578 9.49164 29.4189C9.57922 28.6713 9.72247 27.8837 9.89701 27.0805C11.4547 27.4621 13.1562 27.7561 14.9453 27.9475C16.0181 29.4189 17.131 30.755 18.252 31.9248C15.6603 34.3351 13.2281 35.6557 11.5741 35.6557C11.2169 35.6476 10.9148 35.5756 10.6765 35.4405V35.4405ZM29.5321 29.3788C29.9062 32.4178 29.4445 34.7805 28.3717 35.4092C28.1334 35.5519 27.8231 35.6157 27.4578 35.6157C25.8125 35.6157 23.3716 34.3032 20.7799 31.9086C21.9637 30.6622 23.0606 29.336 24.0628 27.9394C25.8595 27.7486 27.561 27.454 29.1193 27.0642C29.2975 27.828 29.4353 28.6006 29.5321 29.3788V29.3788ZM32.593 24.0734C31.9093 24.3674 31.1617 24.6302 30.391 24.8766C29.9045 23.2234 29.3068 21.6049 28.6019 20.0323C29.2993 18.4674 29.8891 16.8568 30.3672 15.2117C31.1542 15.4582 31.9011 15.7291 32.6005 16.0231C35.4155 17.2242 37.2359 18.7993 37.2359 20.0486C37.2272 21.2972 35.4068 22.8805 32.593 24.0734V24.0734Z" fill="#61DAFB"/>
<path d="M19.0591 22.9413C20.4586 22.9413 21.5932 21.8068 21.5932 20.4072C21.5932 19.0076 20.4586 17.873 19.0591 17.873C17.6595 17.873 16.5249 19.0076 16.5249 20.4072C16.5249 21.8068 17.6595 22.9413 19.0591 22.9413Z" fill="#61DAFB"/>
</svg>
